<svg xmlns="http://www.w3.org/2000/svg" viewBox="0 0 496.70 146.56" role="img" aria-labelledby="logo-title logo-description">
  <title id="logo-title">Rosa Maria Cabeleireiros</title>
  <desc id="logo-description">Logótipo Rosa Maria Cabeleireiros</desc>
  <defs>
    <linearGradient id="logo-gold-main" x1="0" y1="0" x2="0" y2="1">
      <stop offset="0" stop-color="#ebcb6f"/>
      <stop offset="0.48" stop-color="#cf9f1c"/>
      <stop offset="1" stop-color="#9b6f00"/>
    </linearGradient>
    <linearGradient id="logo-gold-sub" x1="0" y1="0" x2="1" y2="1">
      <stop offset="0" stop-color="#e6c070"/>
      <stop offset="0.60" stop-color="#caa53b"/>
      <stop offset="1" stop-color="#a67c00"/>
    </linearGradient>
  </defs>
  <g transform="translate(16.14 91.97) scale(1 -1)">
    <path d="M87.61200000000001 -4.1160000000000005Q84.86800000000001 -4.1160000000000005 82.173 -2.8420000000000005Q79.47800000000001 -1.568 77.126 0.882Q73.696 4.41 71.197 9.359Q68.69800000000001 14.308 66.934 19.551000000000002Q65.17 24.794 64.19 29.155Q63.21 33.516 62.818000000000005 35.868Q59.192 28.91 55.321 22.099Q51.45 15.288 45.472 8.722Q39.788000000000004 2.548 33.026 -0.637Q26.264 -3.822 19.012 -3.822Q16.758 -3.822 14.406 -3.528Q7.938000000000001 -2.744 4.9 0.19599999999999995Q1.862 3.136 1.862 6.468Q1.862 10.094000000000001 5.096 13.034Q8.33 15.974 14.308 15.974Q16.268 15.974 18.522 15.582Q20.776 15.190000000000001 23.226000000000003 14.308Q24.304000000000002 13.916 24.304000000000002 13.426Q24.304000000000002 13.034 23.52 13.034Q23.03 13.034 22.736 13.132Q19.502000000000002 14.308 16.954 14.308Q12.838000000000001 14.308 10.682 11.907Q8.526 9.506 8.526 6.664000000000001Q8.526 3.92 10.878 1.568Q13.23 -0.784 18.13 -0.784Q24.304000000000002 -0.784 29.498 2.107Q34.692 4.998 39.2 10.045Q43.708 15.092 47.824 21.511Q51.940000000000005 27.93 55.86 34.888Q62.426 46.550000000000004 67.767 56.105000000000004Q73.108 65.66 79.086 72.324Q76.44 72.61800000000001 73.696 72.71600000000001Q70.952 72.81400000000001 68.11 72.81400000000001Q61.936 72.81400000000001 55.321 72.177Q48.706 71.54 42.532000000000004 70.168Q34.202 68.404 28.224 64.925Q22.246000000000002 61.446000000000005 18.767000000000003 57.18300000000001Q15.288 52.92 14.406 48.608000000000004Q14.112 47.04 14.112 45.57Q14.112 40.572 17.444 37.828Q20.776 35.084 25.088 35.084Q27.832 35.084 30.625 36.211Q33.418 37.338 35.672000000000004 39.788000000000004Q37.534 41.748000000000005 38.416 43.46300000000001Q39.298 45.178000000000004 39.396 46.06Q39.494 47.432 39.984 47.432Q40.278 47.432 40.522999999999996 46.94200000000001Q40.768 46.452000000000005 40.67 45.962Q40.278 43.708 39.298 41.552Q38.318000000000005 39.396 36.946 37.926Q34.202 35.084 30.674 33.712Q27.146 32.34 23.912000000000003 32.34Q20.09 32.34 16.709 34.006Q13.328000000000001 35.672000000000004 11.27 38.857Q9.212 42.042 9.212 46.746Q9.212 52.234 13.034 57.967Q16.856 63.7 24.549000000000003 68.11Q32.242000000000004 72.52 43.708 74.186Q49.49 74.97 54.929 75.411Q60.368 75.852 65.464 75.852Q69.58 75.852 73.5 75.558Q77.42 75.26400000000001 81.242 74.774Q83.79 77.42 84.672 77.42Q85.358 77.42 85.358 76.342Q85.358 75.95 85.26 75.362Q85.162 74.774 84.96600000000001 74.186Q87.61200000000001 73.794 90.111 73.35300000000001Q92.61 72.912 94.57000000000001 72.324Q102.312 70.168 105.88900000000001 66.68900000000001Q109.46600000000001 63.21 109.46600000000001 59.192Q109.46600000000001 54.88 105.595 50.568Q101.724 46.256 94.71700000000001 42.924Q87.71000000000001 39.592 78.302 38.024Q75.26400000000001 37.534 72.96100000000001 37.338Q70.658 37.142 68.992 37.044000000000004Q69.188 36.064 69.874 32.928Q70.56 29.792 71.834 25.529000000000003Q73.108 21.266000000000002 75.117 16.562Q77.126 11.858 79.968 7.644Q82.22200000000001 4.312 84.57400000000001 2.156Q86.926 0.0 89.572 0.0Q91.238 0.0 93.051 0.882Q94.864 1.764 96.824 3.724Q99.176 6.0760000000000005 101.136 9.016000000000002Q103.096 11.956000000000001 104.468 14.651Q105.84 17.346 106.52600000000001 18.914Q107.114 18.914 107.408 18.816000000000003Q107.702 18.718 107.702 18.032Q107.31 17.052 106.33000000000001 14.945Q105.35000000000001 12.838000000000001 104.02700000000002 10.241Q102.70400000000001 7.644 101.136 5.096Q99.568 2.548 98.0 0.784Q95.74600000000001 -1.6660000000000001 92.953 -2.8910000000000005Q90.16 -4.1160000000000005 87.61200000000001 -4.1160000000000005ZM64.876 39.690000000000005Q67.718 40.18 70.952 40.376000000000005Q74.186 40.572 77.322 40.964Q82.418 41.65 86.926 43.659Q91.434 45.668 94.91300000000001 48.510000000000005Q98.39200000000001 51.352000000000004 100.352 54.537000000000006Q102.312 57.722 102.312 60.662Q102.312 67.32600000000001 93.394 69.87400000000001Q91.63000000000001 70.364 88.837 70.85400000000001Q86.044 71.34400000000001 83.79 71.736Q79.086 63.7 74.137 55.958Q69.188 48.216 64.876 39.690000000000005Z M112.406 0.0Q108.388 0.0 106.477 2.891Q104.566 5.782 104.566 9.898Q104.566 13.72 106.036 17.836000000000002Q107.604 22.344 110.39699999999999 26.068Q113.19 29.792 116.571 32.095Q119.952 34.398 123.28399999999999 34.398Q127.30199999999999 34.398 129.213 31.654000000000003Q131.124 28.91 131.124 24.696Q131.124 21.756 130.144 18.522Q129.164 15.288 127.498 12.152000000000001Q128.772 10.878 131.124 10.878Q133.868 10.878 135.828 12.642Q137.788 14.406 139.65 18.914Q140.826 18.914 140.826 18.032Q138.964 13.524000000000001 136.563 11.417000000000002Q134.162 9.31 130.438 9.408000000000001Q128.184 9.408000000000001 126.714 10.682Q123.97 6.174 120.197 3.087Q116.424 0.0 112.406 0.0ZM113.778 2.156Q116.032 2.156 118.286 4.067Q120.53999999999999 5.978000000000001 122.40199999999999 8.428Q124.264 10.878 125.048 12.642000000000001Q123.48 15.484 123.23500000000001 16.905Q122.99000000000001 18.326 122.99000000000001 19.012Q122.99000000000001 20.874000000000002 123.97 21.854Q124.95 22.834 125.93 22.834Q127.30199999999999 22.834 128.282 21.658Q128.478 22.736 128.57600000000002 23.667Q128.674 24.598000000000003 128.674 25.48Q128.674 28.028000000000002 127.743 29.645000000000003Q126.812 31.262 124.852 31.262Q122.794 31.262 120.53999999999999 29.498Q118.286 27.734 116.277 24.794Q114.268 21.854 112.798 18.228Q111.524 15.190000000000001 110.838 12.495000000000001Q110.152 9.8 110.152 7.546Q110.152 5.096 111.03399999999999 3.6260000000000003Q111.916 2.156 113.778 2.156Z M141.708 -0.392Q137.69 -0.392 135.191 2.1069999999999998Q132.692 4.606 132.692 7.3500000000000005Q132.692 9.604000000000001 133.81900000000002 11.515Q134.946 13.426 136.808 13.426L136.906 13.622Q139.06199999999998 17.542 141.07099999999997 21.609Q143.07999999999998 25.676000000000002 145.53 30.282Q147.588 34.104 149.98899999999998 36.554Q152.39 39.004000000000005 155.624 39.004000000000005Q156.408 39.004000000000005 157.77999999999997 38.661Q159.152 38.318000000000005 159.152 37.24Q159.152 36.456 158.26999999999998 36.456Q157.584 36.456 156.751 36.848Q155.918 37.24 155.428 37.24Q153.566 37.24 152.292 35.084Q151.018 32.928000000000004 151.018 30.478Q151.018 27.832 151.89999999999998 25.725Q152.78199999999998 23.618000000000002 153.95799999999997 21.658Q155.134 19.698 156.016 17.689Q156.898 15.68 156.898 13.328000000000001Q156.898 8.624 155.08499999999998 5.7330000000000005Q153.272 2.842 150.332 1.372H150.43Q155.624 1.372 159.005 6.223Q162.386 11.074 165.718 18.914Q166.894 18.914 166.894 18.032Q165.03199999999998 13.622 162.778 9.408Q160.524 5.194 157.486 2.45Q154.448 -0.29400000000000004 150.038 -0.29400000000000004Q148.176 -0.29400000000000004 146.608 0.098Q144.35399999999998 -0.392 141.708 -0.392ZM140.238 9.996Q140.238 7.644 141.316 5.488Q142.394 3.3320000000000003 145.236 2.254Q147.784 3.724 149.20499999999998 6.811Q150.626 9.898 150.626 13.23Q150.626 15.974 150.038 18.816000000000003Q149.45 21.658 148.813 24.402Q148.176 27.146 148.176 29.302Q148.176 29.988 148.225 30.527Q148.274 31.066000000000003 148.37199999999999 31.556Q146.608 28.91 144.79500000000002 25.381999999999998Q142.982 21.854 141.316 18.62Q139.65 15.386000000000001 138.278 13.328000000000001Q140.238 13.034 140.238 9.996ZM137.004 5.096Q137.004 3.528 138.082 2.3520000000000003Q139.16 1.1760000000000002 141.316 1.1760000000000002Q142.296 1.1760000000000002 143.178 1.372Q141.12 2.646 139.89499999999998 4.606Q138.67 6.566 138.67 9.114Q137.78799999999998 8.134 137.396 7.105Q137.004 6.0760000000000005 137.004 5.096Z M187.082 -0.29400000000000004Q184.828 -0.29400000000000004 183.113 0.98Q181.398 2.254 181.398 6.174Q181.398 7.84 181.64299999999997 9.31Q181.88799999999998 10.780000000000001 182.28 12.446Q181.398 10.976 179.82999999999998 8.82Q178.262 6.664000000000001 176.351 4.606Q174.44 2.548 172.43099999999998 1.176Q170.422 -0.196 168.658 -0.196Q166.10999999999999 -0.196 164.54199999999997 2.107Q162.974 4.41 162.974 8.134Q162.974 12.152000000000001 164.83599999999998 16.758000000000003Q166.69799999999998 21.364 169.932 25.578000000000003Q173.166 29.792 177.38 32.438Q181.594 35.084 186.2 35.084Q188.454 35.084 190.512 34.349000000000004Q192.57 33.614000000000004 194.13799999999998 31.948Q194.82399999999998 31.262 194.82399999999998 30.380000000000003Q194.82399999999998 29.792 194.334 29.400000000000002Q193.844 29.008000000000003 193.06 29.204Q191.982 32.634 188.454 32.634Q186.78799999999998 32.634 184.632 31.556Q181.986 30.184 178.99699999999999 27.195Q176.00799999999998 24.206 173.411 20.433Q170.814 16.66 169.148 12.838000000000001Q167.482 9.016 167.482 5.88Q167.482 2.646 169.932 2.646Q172.088 2.646 174.391 4.704000000000001Q176.694 6.7620000000000005 178.801 9.849Q180.908 12.936 182.67199999999997 15.974Q184.43599999999998 19.012 185.416 20.874000000000002Q186.886 23.52 188.16 25.284Q189.434 27.048000000000002 191.786 27.048000000000002Q192.86399999999998 27.048000000000002 193.94199999999998 26.754Q195.01999999999998 26.46 196.196 26.656000000000002Q193.256 23.716 191.051 19.698Q188.846 15.68 187.67000000000002 11.809000000000001Q186.494 7.938000000000001 186.494 5.292Q186.494 2.3520000000000003 188.454 2.3520000000000003Q190.022 2.3520000000000003 191.83499999999998 4.116Q193.648 5.88 195.363 8.575Q197.078 11.27 198.548 14.063Q200.018 16.856 200.89999999999998 18.914Q201.39 18.914 201.733 18.816000000000003Q202.076 18.718 202.076 18.032Q201.978 17.64 201.733 17.198999999999998Q201.488 16.758 200.998 15.68Q200.214 14.112 198.84199999999998 11.466000000000001Q197.47 8.82 195.608 6.125Q193.74599999999998 3.43 191.58999999999997 1.568Q189.434 -0.29400000000000004 187.082 -0.29400000000000004Z M345.646 -11.27Q344.17600000000004 -11.074 341.62800000000004 -10.535Q339.08000000000004 -9.996 336.434 -8.428Q333.788 -6.86 331.92600000000004 -3.6750000000000003Q330.064 -0.49 330.064 4.8020000000000005Q330.064 10.878 332.563 18.179000000000002Q335.062 25.48 338.688 33.418Q342.314 41.356 345.646 49.098Q348.29200000000003 55.272000000000006 348.29200000000003 58.506Q348.29200000000003 61.74 345.842 61.74Q343.098 61.74 337.659 57.379000000000005Q332.22 53.018 325.06600000000003 44.198Q323.204 41.846000000000004 320.264 37.681Q317.324 33.516 313.992 28.469Q310.66 23.422 307.475 18.277Q304.29 13.132 301.889 8.82Q299.488 4.508 298.41 1.96Q297.136 -1.078 295.47 -2.205Q293.804 -3.3320000000000003 292.334 -3.3320000000000003Q291.06 -3.3320000000000003 290.178 -2.646Q289.198 -1.96 289.198 -0.98Q289.198 -0.392 289.492 0.0Q290.08000000000004 1.1760000000000002 292.432 5.390000000000001Q294.784 9.604000000000001 297.92 16.562Q301.05600000000004 23.52 303.898 32.732Q304.78000000000003 35.574 305.711 39.298Q306.642 43.022 307.42600000000004 46.991Q308.21000000000004 50.96 308.749 54.439Q309.288 57.918 309.288 60.074000000000005Q309.288 63.504000000000005 308.112 65.12100000000001Q306.93600000000004 66.738 304.976 66.738Q302.82 66.738 300.076 64.876Q297.332 63.014 294.49 59.486000000000004Q289.59000000000003 53.312000000000005 285.866 48.069Q282.142 42.826 279.055 37.632000000000005Q275.968 32.438 272.97900000000004 26.558Q269.99 20.678 266.658 13.377Q263.326 6.0760000000000005 259.014 -3.528Q258.32800000000003 -5.096 256.711 -5.782Q255.094 -6.468 253.722 -6.468Q252.35000000000002 -6.468 251.46800000000002 -5.88Q250.586 -5.292 250.88 -4.214Q253.036 -0.784 255.68200000000002 4.361Q258.32800000000003 9.506 261.072 15.778Q263.81600000000003 22.05 266.36400000000003 28.811999999999998Q268.91200000000003 35.574 270.92100000000005 42.042Q272.93 48.510000000000005 274.106 54.194Q275.28200000000004 59.878 275.28200000000004 63.896Q275.28200000000004 71.44200000000001 272.09700000000004 74.676Q268.91200000000003 77.91 263.914 77.91Q259.504 77.91 254.21200000000002 75.75399999999999Q248.92000000000002 73.598 243.579 69.874Q238.238 66.15 233.534 61.446000000000005Q226.772 54.684000000000005 222.901 46.746Q219.03 38.808 219.03 30.674Q219.03 25.186 221.08800000000002 21.364Q223.14600000000002 17.542 226.52700000000002 15.582Q229.90800000000002 13.622 234.024 13.622Q238.238 13.622 241.913 15.729000000000001Q245.58800000000002 17.836000000000002 248.38100000000003 21.217000000000002Q251.174 24.598000000000003 252.74200000000002 28.371000000000002Q254.31 32.144 254.31 35.476Q254.31 38.318000000000005 252.74200000000002 40.18000000000001Q251.174 42.042 247.744 42.042Q247.352 42.042 246.911 41.993Q246.47 41.944 245.98000000000002 41.944H245.686Q245.0 41.944 244.412 42.18900000000001Q243.824 42.434000000000005 243.824 42.826Q243.824 43.218 244.853 43.708Q245.882 44.198 248.626 44.198Q253.036 44.198 255.241 41.601Q257.446 39.004000000000005 257.446 34.986000000000004Q257.446 31.066000000000003 255.437 26.950000000000003Q253.428 22.834 249.998 19.306Q246.568 15.778 242.305 13.622Q238.042 11.466000000000001 233.534 11.466000000000001Q228.24200000000002 11.466000000000001 223.685 13.916Q219.12800000000001 16.366 216.38400000000001 21.021Q213.64000000000001 25.676000000000002 213.64000000000001 32.144Q213.64000000000001 38.318000000000005 216.18800000000002 44.345Q218.73600000000002 50.372 222.803 55.713Q226.87 61.054 231.476 65.17Q236.572 69.776 242.256 73.059Q247.94 76.342 253.57500000000002 78.155Q259.21000000000004 79.968 264.11 79.968Q271.362 79.968 276.115 75.656Q280.868 71.34400000000001 280.868 61.74Q280.868 57.82 279.78999999999996 52.772999999999996Q278.712 47.726 277.24199999999996 42.679Q275.772 37.632000000000005 274.4 33.712H274.596Q278.124 40.082 280.91700000000003 44.639Q283.71000000000004 49.196000000000005 286.552 53.116Q289.394 57.036 292.922 61.348Q295.96000000000004 64.974 299.88 67.13Q303.8 69.286 307.426 69.286Q310.66 69.286 312.914 67.13Q315.168 64.974 315.168 59.78Q315.168 59.192 315.168 58.8Q315.168 58.408 315.07 57.624Q314.188 48.216 311.346 39.151Q308.504 30.086000000000002 305.466 20.874000000000002Q308.504 25.578 313.698 32.83Q318.892 40.082 325.06600000000003 47.824000000000005Q332.612 57.232 339.08000000000004 61.936Q345.548 66.64 349.762 66.64Q355.054 66.64 355.054 60.172000000000004Q355.054 57.722 354.123 54.292Q353.192 50.862 351.23199999999997 47.04Q349.076 42.728 346.47900000000004 37.093Q343.882 31.458000000000002 341.53 25.284Q339.178 19.11 337.659 13.181000000000001Q336.14 7.252000000000001 336.14 2.254Q336.14 -3.136 338.639 -6.4190000000000005Q341.13800000000003 -9.702 347.312 -9.702H347.9Q349.37 -9.702 349.37 -10.290000000000001Q349.37 -10.682 348.39 -11.074000000000002Q347.40999999999997 -11.466000000000001 345.646 -11.27Z M369.852 -0.29400000000000004Q367.59799999999996 -0.29400000000000004 365.8829999999999 0.98Q364.16799999999995 2.254 364.16799999999995 6.174Q364.16799999999995 7.84 364.41299999999995 9.31Q364.65799999999996 10.780000000000001 365.04999999999995 12.446Q364.16799999999995 10.976 362.59999999999997 8.82Q361.032 6.664000000000001 359.121 4.606Q357.21 2.548 355.20099999999996 1.176Q353.19199999999995 -0.196 351.428 -0.196Q348.88 -0.196 347.312 2.107Q345.74399999999997 4.41 345.74399999999997 8.134Q345.74399999999997 12.152000000000001 347.606 16.758000000000003Q349.46799999999996 21.364 352.702 25.578000000000003Q355.936 29.792 360.15 32.438Q364.364 35.084 368.96999999999997 35.084Q371.224 35.084 373.282 34.349000000000004Q375.34 33.614000000000004 376.90799999999996 31.948Q377.594 31.262 377.594 30.380000000000003Q377.594 29.792 377.104 29.400000000000002Q376.614 29.008000000000003 375.83 29.204Q374.75199999999995 32.634 371.224 32.634Q369.558 32.634 367.402 31.556Q364.756 30.184 361.76699999999994 27.195Q358.77799999999996 24.206 356.1809999999999 20.433Q353.58399999999995 16.66 351.91799999999995 12.838000000000001Q350.25199999999995 9.016 350.25199999999995 5.88Q350.25199999999995 2.646 352.702 2.646Q354.85799999999995 2.646 357.16099999999994 4.704000000000001Q359.464 6.7620000000000005 361.571 9.849Q363.678 12.936 365.442 15.974Q367.20599999999996 19.012 368.186 20.874000000000002Q369.65599999999995 23.52 370.92999999999995 25.284Q372.20399999999995 27.048000000000002 374.556 27.048000000000002Q375.63399999999996 27.048000000000002 376.712 26.754Q377.78999999999996 26.46 378.96599999999995 26.656000000000002Q376.02599999999995 23.716 373.82099999999997 19.698Q371.616 15.68 370.43999999999994 11.809000000000001Q369.26399999999995 7.938000000000001 369.26399999999995 5.292Q369.26399999999995 2.3520000000000003 371.224 2.3520000000000003Q372.792 2.3520000000000003 374.605 4.116Q376.418 5.88 378.133 8.575Q379.84799999999996 11.27 381.318 14.063Q382.78799999999995 16.856 383.66999999999996 18.914Q384.15999999999997 18.914 384.503 18.816000000000003Q384.846 18.718 384.846 18.032Q384.748 17.64 384.503 17.198999999999998Q384.258 16.758 383.768 15.68Q382.984 14.112 381.61199999999997 11.466000000000001Q380.23999999999995 8.82 378.37799999999993 6.125Q376.51599999999996 3.43 374.35999999999996 1.568Q372.20399999999995 -0.29400000000000004 369.852 -0.29400000000000004Z M383.768 19.208000000000002Q384.55199999999996 20.874000000000002 385.82599999999996 24.549Q387.09999999999997 28.224 388.472 32.732Q389.844 37.24 390.53 41.258Q390.82399999999996 42.826 391.60799999999995 43.561Q392.392 44.296 393.274 44.296Q394.548 44.296 395.626 43.071Q396.70399999999995 41.846000000000004 396.70399999999995 39.592Q396.70399999999995 36.848 395.087 34.888000000000005Q393.46999999999997 32.928000000000004 391.118 31.164Q392.09799999999996 31.066000000000003 393.17599999999993 31.017000000000003Q394.25399999999996 30.968 395.52799999999996 30.968Q400.13399999999996 30.968 404.642 31.556Q404.83799999999997 30.968 404.83799999999997 30.674Q404.83799999999997 29.400000000000002 404.10299999999995 27.44Q403.368 25.48 402.584 23.912000000000003Q402.192 23.03 401.01599999999996 20.727Q399.84 18.424 398.46799999999996 15.533000000000001Q397.096 12.642000000000001 396.16499999999996 9.849Q395.234 7.056 395.234 5.096Q395.234 2.548 397.19399999999996 2.548Q399.056 2.548 402.388 6.909Q405.71999999999997 11.27 409.05199999999996 18.914Q410.22799999999995 18.914 410.22799999999995 18.032Q409.15 15.386000000000001 407.533 12.25Q405.916 9.114 403.956 6.321000000000001Q401.996 3.528 399.74199999999996 1.715Q397.488 -0.098 395.03799999999995 -0.098Q393.176 -0.098 391.31399999999996 1.421Q389.452 2.94 389.452 6.37Q389.452 9.408000000000001 390.628 12.299000000000001Q391.804 15.190000000000001 393.274 17.738Q394.74399999999997 20.286 395.91999999999996 22.246000000000002Q397.096 24.206 397.096 25.382Q397.096 27.146 394.89099999999996 27.93Q392.686 28.714000000000002 389.15799999999996 28.812Q387.394 24.304000000000002 386.512 22.148000000000003Q385.63 19.992 384.846 18.032Q383.27799999999996 18.032 383.768 19.208000000000002Z M411.796 0.0Q408.16999999999996 0.0 406.69999999999993 2.107Q405.22999999999996 4.214 405.22999999999996 6.958Q405.22999999999996 8.428 405.573 9.947000000000001Q405.916 11.466000000000001 406.406 12.74L412.972 29.498Q413.26599999999996 30.282 413.26599999999996 30.87Q413.26599999999996 31.85 412.77599999999995 32.585Q412.286 33.32 412.09 33.614000000000004L417.47999999999996 33.81Q418.95 33.908 419.587 33.467Q420.224 33.026 420.224 32.438Q420.224 31.85 419.538 30.282Q418.558 27.93 416.892 24.402Q415.226 20.874000000000002 413.609 17.150000000000002Q411.99199999999996 13.426 410.865 10.192Q409.738 6.958 409.738 5.194Q409.738 3.92 410.375 3.0380000000000003Q411.012 2.156 412.58 2.156Q414.638 2.156 416.647 3.7730000000000006Q418.656 5.390000000000001 420.41999999999996 7.938000000000001Q422.18399999999997 10.486 423.703 13.426Q425.222 16.366 426.29999999999995 18.914Q427.476 18.914 427.476 18.032Q426.496 15.582 424.928 12.446000000000002Q423.35999999999996 9.31 421.351 6.517Q419.342 3.724 416.941 1.862Q414.53999999999996 0.0 411.796 0.0ZM420.518 39.886Q419.24399999999997 39.886 418.313 40.866Q417.38199999999995 41.846000000000004 417.38199999999995 43.218Q417.38199999999995 44.884 418.75399999999996 46.207Q420.126 47.53 421.792 47.53Q423.164 47.53 424.144 46.647999999999996Q425.12399999999997 45.766 425.12399999999997 44.394Q425.12399999999997 42.63 423.75199999999995 41.258Q422.38 39.886 420.518 39.886Z M447.566 -0.29400000000000004Q445.31199999999995 -0.29400000000000004 443.597 0.98Q441.88199999999995 2.254 441.88199999999995 6.174Q441.88199999999995 7.84 442.12699999999995 9.31Q442.37199999999996 10.780000000000001 442.76399999999995 12.446Q441.88199999999995 10.976 440.31399999999996 8.82Q438.746 6.664000000000001 436.835 4.606Q434.924 2.548 432.91499999999996 1.176Q430.90599999999995 -0.196 429.142 -0.196Q426.594 -0.196 425.02599999999995 2.107Q423.45799999999997 4.41 423.45799999999997 8.134Q423.45799999999997 12.152000000000001 425.31999999999994 16.758000000000003Q427.18199999999996 21.364 430.41599999999994 25.578000000000003Q433.65 29.792 437.864 32.438Q442.078 35.084 446.68399999999997 35.084Q448.938 35.084 450.996 34.349000000000004Q453.054 33.614000000000004 454.62199999999996 31.948Q455.308 31.262 455.308 30.380000000000003Q455.308 29.792 454.818 29.400000000000002Q454.328 29.008000000000003 453.544 29.204Q452.46599999999995 32.634 448.938 32.634Q447.272 32.634 445.116 31.556Q442.46999999999997 30.184 439.481 27.195Q436.49199999999996 24.206 433.895 20.433Q431.298 16.66 429.63199999999995 12.838000000000001Q427.96599999999995 9.016 427.96599999999995 5.88Q427.96599999999995 2.646 430.416 2.646Q432.57199999999995 2.646 434.875 4.704000000000001Q437.178 6.7620000000000005 439.28499999999997 9.849Q441.392 12.936 443.15599999999995 15.974Q444.91999999999996 19.012 445.9 20.874000000000002Q447.36999999999995 23.52 448.64399999999995 25.284Q449.91799999999995 27.048000000000002 452.27 27.048000000000002Q453.34799999999996 27.048000000000002 454.42599999999993 26.754Q455.50399999999996 26.46 456.67999999999995 26.656000000000002Q453.73999999999995 23.716 451.53499999999997 19.698Q449.33 15.68 448.154 11.809000000000001Q446.97799999999995 7.938000000000001 446.97799999999995 5.292Q446.97799999999995 2.3520000000000003 448.938 2.3520000000000003Q450.506 2.3520000000000003 452.31899999999996 4.116Q454.13199999999995 5.88 455.847 8.575Q457.56199999999995 11.27 459.0319999999999 14.063Q460.50199999999995 16.856 461.38399999999996 18.914Q461.87399999999997 18.914 462.217 18.816000000000003Q462.55999999999995 18.718 462.55999999999995 18.032Q462.462 17.64 462.217 17.198999999999998Q461.972 16.758 461.48199999999997 15.68Q460.698 14.112 459.32599999999996 11.466000000000001Q457.95399999999995 8.82 456.092 6.125Q454.22999999999996 3.43 452.07399999999996 1.568Q449.91799999999995 -0.29400000000000004 447.566 -0.29400000000000004Z" fill="url(#logo-gold-main)"/>
  </g>
  <g transform="translate(126.95 134.30) scale(1 -1)">
    <path d="M9.261999999999999 13.991999999999999Q10.032 13.991999999999999 10.747 13.915Q11.462 13.838 12.088999999999999 13.695Q12.716 13.552 13.222 13.309999999999999Q13.398 13.222 13.453 13.134Q13.508 13.046 13.53 12.803999999999998L13.793999999999999 9.899999999999999Q13.793999999999999 9.834 13.684 9.812Q13.574 9.79 13.53 9.878Q12.957999999999998 11.66 11.835999999999999 12.617Q10.713999999999999 13.574 9.02 13.574Q7.3919999999999995 13.574 6.138 12.771Q4.8839999999999995 11.968 4.18 10.483Q3.476 8.998 3.476 6.952Q3.476 5.4559999999999995 3.905 4.202Q4.334 2.948 5.115 2.046Q5.896 1.144 6.93 0.6489999999999999Q7.9639999999999995 0.154 9.196 0.154Q10.846 0.154 11.902 1.012Q12.957999999999998 1.8699999999999999 13.75 3.6959999999999997Q13.771999999999998 3.7619999999999996 13.881999999999998 3.7399999999999998Q13.991999999999999 3.718 13.991999999999999 3.674L13.706 1.056Q13.684 0.7919999999999999 13.629 0.715Q13.574 0.638 13.398 0.5499999999999999Q12.319999999999999 0.10999999999999999 11.285999999999998 -0.07700000000000001Q10.251999999999999 -0.264 9.174 -0.264Q6.819999999999999 -0.264 4.994 0.627Q3.1679999999999997 1.518 2.1229999999999998 3.135Q1.0779999999999998 4.752 1.0779999999999998 6.842Q1.0779999999999998 8.426 1.694 9.745999999999999Q2.31 11.065999999999999 3.4210000000000003 12.011999999999999Q4.532 12.957999999999998 6.028 13.474999999999998Q7.523999999999999 13.991999999999999 9.261999999999999 13.991999999999999Z M25.563999999999997 5.39 25.849999999999998 5.9399999999999995H32.01L32.164 5.39ZM37.268 0.264Q37.355999999999995 0.264 37.355999999999995 0.132Q37.355999999999995 0.0 37.268 0.0Q36.608 0.0 35.91499999999999 0.044Q35.221999999999994 0.088 34.583999999999996 0.088Q33.858 0.088 33.319 0.044Q32.78 0.0 32.12 0.0Q32.032 0.0 32.032 0.132Q32.032 0.264 32.12 0.264Q33.11 0.264 33.308 0.616Q33.506 0.968 32.977999999999994 2.002L28.379999999999995 11.351999999999999L29.281999999999996 12.825999999999999L24.926 3.014Q24.354 1.672 24.893 0.968Q25.432 0.264 26.729999999999997 0.264Q26.839999999999996 0.264 26.839999999999996 0.132Q26.839999999999996 0.0 26.729999999999997 0.0Q26.069999999999997 0.0 25.519999999999996 0.044Q24.97 0.088 24.133999999999997 0.088Q23.298 0.088 22.802999999999997 0.044Q22.307999999999996 0.0 21.581999999999997 0.0Q21.493999999999996 0.0 21.493999999999996 0.132Q21.493999999999996 0.264 21.581999999999997 0.264Q22.176 0.264 22.604999999999997 0.506Q23.034 0.748 23.451999999999998 1.3969999999999998Q23.869999999999997 2.046 24.375999999999998 3.2119999999999997L29.105999999999998 13.882Q29.15 13.947999999999999 29.304 13.947999999999999Q29.458 13.947999999999999 29.479999999999997 13.882L34.87 3.014Q35.376 1.958 35.772 1.353Q36.168 0.748 36.519999999999996 0.506Q36.872 0.264 37.268 0.264Z M50.556 7.414 50.797999999999995 7.765999999999999Q52.227999999999994 7.765999999999999 53.294999999999995 7.282Q54.361999999999995 6.798 54.955999999999996 5.9510000000000005Q55.55 5.104 55.55 4.004Q55.55 2.86 54.922999999999995 1.9249999999999998Q54.29599999999999 0.99 53.196 0.451Q52.096 -0.088 50.709999999999994 -0.088Q50.071999999999996 -0.088 49.169999999999995 -0.022Q48.267999999999994 0.044 47.519999999999996 0.044Q46.74999999999999 0.044 46.04599999999999 0.022Q45.34199999999999 0.0 44.791999999999994 0.0Q44.72599999999999 0.0 44.72599999999999 0.132Q44.72599999999999 0.264 44.791999999999994 0.264Q45.474 0.264 45.836999999999996 0.374Q46.199999999999996 0.484 46.342999999999996 0.814Q46.486 1.144 46.486 1.7819999999999998V11.968Q46.486 12.606 46.354 12.925Q46.221999999999994 13.244 45.858999999999995 13.364999999999998Q45.495999999999995 13.485999999999999 44.81399999999999 13.485999999999999Q44.769999999999996 13.485999999999999 44.769999999999996 13.617999999999999Q44.769999999999996 13.75 44.81399999999999 13.75Q45.364 13.75 46.056999999999995 13.716999999999999Q46.74999999999999 13.684 47.519999999999996 13.684Q48.135999999999996 13.684 48.839999999999996 13.75Q49.544 13.815999999999999 50.181999999999995 13.815999999999999Q51.501999999999995 13.815999999999999 52.392999999999994 13.474999999999998Q53.28399999999999 13.133999999999999 53.745999999999995 12.495999999999999Q54.208 11.857999999999999 54.208 10.956Q54.208 9.724 53.262 8.767Q52.315999999999995 7.81 50.556 7.414ZM49.80799999999999 13.376Q49.367999999999995 13.376 49.092999999999996 13.265999999999998Q48.818 13.155999999999999 48.708 12.847999999999999Q48.59799999999999 12.54 48.59799999999999 11.924V7.611999999999999L47.806 7.765999999999999Q48.532 7.744 48.994 7.733Q49.455999999999996 7.7219999999999995 49.49999999999999 7.7219999999999995Q50.864 7.7219999999999995 51.501999999999995 8.602Q52.13999999999999 9.482 52.13999999999999 10.758Q52.13999999999999 11.572 51.88699999999999 12.166Q51.63399999999999 12.76 51.11699999999999 13.068Q50.599999999999994 13.376 49.80799999999999 13.376ZM50.358 0.418Q51.919999999999995 0.418 52.623999999999995 1.221Q53.327999999999996 2.024 53.327999999999996 3.476Q53.327999999999996 5.104 52.480999999999995 6.138Q51.63399999999999 7.172 49.91799999999999 7.172Q49.587999999999994 7.172 49.038 7.161Q48.48799999999999 7.1499999999999995 47.89399999999999 7.039999999999999L48.59799999999999 7.303999999999999V1.7819999999999998Q48.59799999999999 1.3199999999999998 48.708 1.012Q48.818 0.704 49.202999999999996 0.5609999999999999Q49.587999999999994 0.418 50.358 0.418Z M73.74399999999999 0.0H64.196Q64.13 0.0 64.13 0.132Q64.13 0.264 64.196 0.264Q64.922 0.264 65.274 0.374Q65.62599999999999 0.484 65.74699999999999 0.814Q65.868 1.144 65.868 1.7819999999999998V11.968Q65.868 12.606 65.74699999999999 12.925Q65.62599999999999 13.244 65.274 13.364999999999998Q64.922 13.485999999999999 64.196 13.485999999999999Q64.13 13.485999999999999 64.13 13.617999999999999Q64.13 13.75 64.196 13.75H73.34799999999998Q73.56799999999998 13.75 73.56799999999998 13.552L73.612 10.692Q73.612 10.648 73.502 10.637Q73.392 10.626 73.34799999999998 10.692Q73.106 11.946 72.33599999999998 12.562Q71.56599999999999 13.177999999999999 70.31199999999998 13.177999999999999H69.41Q68.85999999999999 13.177999999999999 68.541 13.056999999999999Q68.222 12.936 68.09 12.661Q67.958 12.386 67.958 11.924V1.8699999999999999Q67.958 1.408 68.079 1.111Q68.19999999999999 0.814 68.464 0.693Q68.728 0.572 69.21199999999999 0.572H70.28999999999999Q71.78599999999999 0.572 72.70999999999998 1.287Q73.63399999999999 2.002 74.02999999999999 3.4099999999999997Q74.05199999999999 3.476 74.173 3.4539999999999997Q74.294 3.432 74.294 3.388Q74.20599999999999 2.772 74.13999999999999 1.914Q74.07399999999998 1.056 74.07399999999998 0.32999999999999996Q74.07399999999998 0.0 73.74399999999999 0.0ZM72.51199999999999 4.9719999999999995Q72.51199999999999 5.896 71.89599999999999 6.38Q71.27999999999999 6.864 70.04799999999999 6.864H66.96799999999999V7.436H70.07Q71.30199999999999 7.436 71.89599999999999 7.854Q72.49 8.272 72.49 9.064Q72.49 9.129999999999999 72.61099999999999 9.129999999999999Q72.73199999999999 9.129999999999999 72.73199999999999 9.064Q72.73199999999999 8.36 72.72099999999999 7.9639999999999995Q72.71 7.568 72.71 7.1499999999999995Q72.71 6.622 72.743 6.105Q72.776 5.588 72.776 4.9719999999999995Q72.776 4.928 72.64399999999999 4.928Q72.51199999999999 4.928 72.51199999999999 4.9719999999999995Z M86.37199999999999 11.946V1.8699999999999999Q86.37199999999999 1.3199999999999998 86.48199999999999 1.0339999999999998Q86.59199999999998 0.748 86.89999999999999 0.6599999999999999Q87.208 0.572 87.80199999999999 0.572H89.12199999999999Q90.684 0.572 91.762 1.452Q92.83999999999999 2.332 93.192 3.784Q93.214 3.8499999999999996 93.324 3.8279999999999994Q93.434 3.8059999999999996 93.434 3.7399999999999998Q93.368 3.058 93.30199999999999 2.101Q93.23599999999999 1.144 93.23599999999999 0.32999999999999996Q93.23599999999999 0.0 92.90599999999999 0.0H82.60999999999999Q82.56599999999999 0.0 82.56599999999999 0.132Q82.56599999999999 0.264 82.60999999999999 0.264Q83.314 0.264 83.67699999999999 0.374Q84.03999999999999 0.484 84.161 0.814Q84.282 1.144 84.282 1.7819999999999998V11.968Q84.282 12.606 84.161 12.925Q84.03999999999999 13.244 83.67699999999999 13.364999999999998Q83.314 13.485999999999999 82.60999999999999 13.485999999999999Q82.56599999999999 13.485999999999999 82.56599999999999 13.617999999999999Q82.56599999999999 13.75 82.60999999999999 13.75Q83.13799999999999 13.75 83.84199999999998 13.716999999999999Q84.54599999999999 13.684 85.31599999999999 13.684Q86.13 13.684 86.823 13.716999999999999Q87.51599999999999 13.75 88.044 13.75Q88.10999999999999 13.75 88.10999999999999 13.617999999999999Q88.10999999999999 13.485999999999999 88.044 13.485999999999999Q87.33999999999999 13.485999999999999 86.97699999999999 13.364999999999998Q86.61399999999999 13.244 86.493 12.914Q86.37199999999999 12.584 86.37199999999999 11.946Z M110.87999999999998 0.0H101.332Q101.26599999999999 0.0 101.26599999999999 0.132Q101.26599999999999 0.264 101.332 0.264Q102.05799999999999 0.264 102.41 0.374Q102.76199999999999 0.484 102.88299999999998 0.814Q103.00399999999999 1.144 103.00399999999999 1.7819999999999998V11.968Q103.00399999999999 12.606 102.88299999999998 12.925Q102.76199999999999 13.244 102.41 13.364999999999998Q102.05799999999999 13.485999999999999 101.332 13.485999999999999Q101.26599999999999 13.485999999999999 101.26599999999999 13.617999999999999Q101.26599999999999 13.75 101.332 13.75H110.48399999999998Q110.70399999999998 13.75 110.70399999999998 13.552L110.74799999999999 10.692Q110.74799999999999 10.648 110.63799999999999 10.637Q110.52799999999999 10.626 110.48399999999998 10.692Q110.24199999999999 11.946 109.47199999999998 12.562Q108.70199999999998 13.177999999999999 107.44799999999998 13.177999999999999H106.54599999999999Q105.99599999999998 13.177999999999999 105.67699999999999 13.056999999999999Q105.35799999999999 12.936 105.226 12.661Q105.094 12.386 105.094 11.924V1.8699999999999999Q105.094 1.408 105.21499999999999 1.111Q105.33599999999998 0.814 105.6 0.693Q105.86399999999999 0.572 106.34799999999998 0.572H107.42599999999999Q108.92199999999998 0.572 109.84599999999998 1.287Q110.76999999999998 2.002 111.16599999999998 3.4099999999999997Q111.18799999999999 3.476 111.309 3.4539999999999997Q111.42999999999999 3.432 111.42999999999999 3.388Q111.34199999999998 2.772 111.27599999999998 1.914Q111.20999999999998 1.056 111.20999999999998 0.32999999999999996Q111.20999999999998 0.0 110.87999999999998 0.0ZM109.64799999999998 4.9719999999999995Q109.64799999999998 5.896 109.03199999999998 6.38Q108.41599999999998 6.864 107.18399999999998 6.864H104.10399999999998V7.436H107.20599999999999Q108.43799999999999 7.436 109.03199999999998 7.854Q109.62599999999999 8.272 109.62599999999999 9.064Q109.62599999999999 9.129999999999999 109.74699999999999 9.129999999999999Q109.86799999999998 9.129999999999999 109.86799999999998 9.064Q109.86799999999998 8.36 109.85699999999999 7.9639999999999995Q109.84599999999999 7.568 109.84599999999999 7.1499999999999995Q109.84599999999999 6.622 109.87899999999999 6.105Q109.91199999999999 5.588 109.91199999999999 4.9719999999999995Q109.91199999999999 4.928 109.77999999999999 4.928Q109.64799999999998 4.928 109.64799999999998 4.9719999999999995Z M123.81599999999999 1.7819999999999998Q123.81599999999999 1.144 123.93699999999998 0.814Q124.05799999999999 0.484 124.41 0.374Q124.76199999999999 0.264 125.48799999999999 0.264Q125.55399999999999 0.264 125.55399999999999 0.132Q125.55399999999999 0.0 125.48799999999999 0.0Q124.93799999999999 0.0 124.25599999999999 0.022Q123.57399999999998 0.044 122.73799999999999 0.044Q121.96799999999999 0.044 121.26399999999998 0.022Q120.55999999999999 0.0 120.00999999999999 0.0Q119.94399999999999 0.0 119.94399999999999 0.132Q119.94399999999999 0.264 120.00999999999999 0.264Q120.71399999999998 0.264 121.088 0.374Q121.46199999999999 0.484 121.583 0.814Q121.704 1.144 121.704 1.7819999999999998V11.968Q121.704 12.606 121.583 12.925Q121.46199999999999 13.244 121.088 13.364999999999998Q120.71399999999998 13.485999999999999 120.00999999999999 13.485999999999999Q119.94399999999999 13.485999999999999 119.94399999999999 13.617999999999999Q119.94399999999999 13.75 120.00999999999999 13.75Q120.55999999999999 13.75 121.26399999999998 13.716999999999999Q121.96799999999999 13.684 122.73799999999999 13.684Q123.57399999999998 13.684 124.26699999999998 13.716999999999999Q124.95999999999998 13.75 125.48799999999999 13.75Q125.55399999999999 13.75 125.55399999999999 13.617999999999999Q125.55399999999999 13.485999999999999 125.48799999999999 13.485999999999999Q124.78399999999999 13.485999999999999 124.42099999999999 13.354Q124.05799999999999 13.222 123.93699999999998 12.892Q123.81599999999999 12.562 123.81599999999999 11.924Z M144.93599999999998 0.0Q144.606 0.0 143.836 0.836Q143.066 1.672 141.977 3.2449999999999997Q140.888 4.818 139.546 6.9959999999999996L141.30599999999998 7.523999999999999Q143.088 4.862 144.353 3.267Q145.618 1.672 146.59699999999998 0.968Q147.576 0.264 148.47799999999998 0.264Q148.522 0.264 148.522 0.132Q148.522 0.0 148.47799999999998 0.0Q147.09199999999998 0.0 146.22299999999998 0.0Q145.35399999999998 0.0 144.93599999999998 0.0ZM139.942 13.815999999999999Q141.856 13.815999999999999 142.901 13.056999999999999Q143.946 12.298 143.946 10.978Q143.946 9.724 143.231 8.734Q142.516 7.744 141.38299999999998 7.193999999999999Q140.25 6.643999999999999 138.952 6.643999999999999Q138.688 6.643999999999999 138.38 6.654999999999999Q138.072 6.6659999999999995 137.82999999999998 6.688V1.7819999999999998Q137.82999999999998 1.144 137.94 0.814Q138.04999999999998 0.484 138.41299999999998 0.374Q138.77599999999998 0.264 139.48 0.264Q139.546 0.264 139.546 0.132Q139.546 0.0 139.48 0.0Q138.93 0.0 138.248 0.022Q137.566 0.044 136.75199999999998 0.044Q135.982 0.044 135.278 0.022Q134.57399999999998 0.0 134.024 0.0Q133.958 0.0 133.958 0.132Q133.958 0.264 134.024 0.264Q134.75 0.264 135.102 0.374Q135.454 0.484 135.586 0.814Q135.718 1.144 135.718 1.7819999999999998V11.968Q135.718 12.606 135.59699999999998 12.925Q135.476 13.244 135.124 13.364999999999998Q134.772 13.485999999999999 134.046 13.485999999999999Q134.00199999999998 13.485999999999999 134.00199999999998 13.617999999999999Q134.00199999999998 13.75 134.046 13.75Q134.596 13.75 135.289 13.716999999999999Q135.982 13.684 136.75199999999998 13.684Q137.456 13.684 138.336 13.75Q139.216 13.815999999999999 139.942 13.815999999999999ZM141.768 10.208Q141.768 11.484 141.471 12.177Q141.174 12.87 140.64600000000002 13.134Q140.118 13.398 139.414 13.398Q138.55599999999998 13.398 138.19299999999998 13.079Q137.82999999999998 12.76 137.82999999999998 11.924V7.281999999999999Q138.138 7.2379999999999995 138.49 7.215999999999999Q138.84199999999998 7.194 139.106 7.194Q140.57999999999998 7.194 141.17399999999998 7.930999999999999Q141.768 8.668 141.768 10.208Z M165.33 0.0H155.782Q155.716 0.0 155.716 0.132Q155.716 0.264 155.782 0.264Q156.508 0.264 156.86 0.374Q157.21200000000002 0.484 157.33300000000003 0.814Q157.454 1.144 157.454 1.7819999999999998V11.968Q157.454 12.606 157.33300000000003 12.925Q157.21200000000002 13.244 156.86 13.364999999999998Q156.508 13.485999999999999 155.782 13.485999999999999Q155.716 13.485999999999999 155.716 13.617999999999999Q155.716 13.75 155.782 13.75H164.934Q165.154 13.75 165.154 13.552L165.198 10.692Q165.198 10.648 165.08800000000002 10.637Q164.978 10.626 164.934 10.692Q164.692 11.946 163.92200000000003 12.562Q163.15200000000002 13.177999999999999 161.898 13.177999999999999H160.996Q160.446 13.177999999999999 160.127 13.056999999999999Q159.808 12.936 159.676 12.661Q159.544 12.386 159.544 11.924V1.8699999999999999Q159.544 1.408 159.66500000000002 1.111Q159.786 0.814 160.05 0.693Q160.314 0.572 160.798 0.572H161.876Q163.372 0.572 164.296 1.287Q165.22 2.002 165.616 3.4099999999999997Q165.638 3.476 165.75900000000001 3.4539999999999997Q165.88 3.432 165.88 3.388Q165.792 2.772 165.726 1.914Q165.66 1.056 165.66 0.32999999999999996Q165.66 0.0 165.33 0.0ZM164.098 4.9719999999999995Q164.098 5.896 163.48200000000003 6.38Q162.866 6.864 161.63400000000001 6.864H158.554V7.436H161.656Q162.888 7.436 163.482 7.854Q164.076 8.272 164.076 9.064Q164.076 9.129999999999999 164.197 9.129999999999999Q164.318 9.129999999999999 164.318 9.064Q164.318 8.36 164.30700000000002 7.9639999999999995Q164.296 7.568 164.296 7.1499999999999995Q164.296 6.622 164.329 6.105Q164.362 5.588 164.362 4.9719999999999995Q164.362 4.928 164.23000000000002 4.928Q164.098 4.928 164.098 4.9719999999999995Z M178.26600000000002 1.7819999999999998Q178.26600000000002 1.144 178.387 0.814Q178.508 0.484 178.86 0.374Q179.21200000000002 0.264 179.93800000000002 0.264Q180.00400000000002 0.264 180.00400000000002 0.132Q180.00400000000002 0.0 179.93800000000002 0.0Q179.388 0.0 178.70600000000002 0.022Q178.02400000000003 0.044 177.18800000000002 0.044Q176.418 0.044 175.714 0.022Q175.01000000000002 0.0 174.46 0.0Q174.394 0.0 174.394 0.132Q174.394 0.264 174.46 0.264Q175.16400000000002 0.264 175.538 0.374Q175.912 0.484 176.03300000000002 0.814Q176.15400000000002 1.144 176.15400000000002 1.7819999999999998V11.968Q176.15400000000002 12.606 176.03300000000002 12.925Q175.912 13.244 175.538 13.364999999999998Q175.16400000000002 13.485999999999999 174.46 13.485999999999999Q174.394 13.485999999999999 174.394 13.617999999999999Q174.394 13.75 174.46 13.75Q175.01000000000002 13.75 175.714 13.716999999999999Q176.418 13.684 177.18800000000002 13.684Q178.02400000000003 13.684 178.71700000000004 13.716999999999999Q179.41000000000003 13.75 179.93800000000002 13.75Q180.00400000000002 13.75 180.00400000000002 13.617999999999999Q180.00400000000002 13.485999999999999 179.93800000000002 13.485999999999999Q179.234 13.485999999999999 178.871 13.354Q178.508 13.222 178.387 12.892Q178.26600000000002 12.562 178.26600000000002 11.924Z M199.38600000000002 0.0Q199.056 0.0 198.286 0.836Q197.51600000000002 1.672 196.42700000000002 3.2449999999999997Q195.33800000000002 4.818 193.996 6.9959999999999996L195.756 7.523999999999999Q197.538 4.862 198.803 3.267Q200.068 1.672 201.04700000000003 0.968Q202.026 0.264 202.928 0.264Q202.972 0.264 202.972 0.132Q202.972 0.0 202.928 0.0Q201.542 0.0 200.673 0.0Q199.804 0.0 199.38600000000002 0.0ZM194.39200000000002 13.815999999999999Q196.306 13.815999999999999 197.351 13.056999999999999Q198.39600000000002 12.298 198.39600000000002 10.978Q198.39600000000002 9.724 197.681 8.734Q196.966 7.744 195.83300000000003 7.193999999999999Q194.70000000000002 6.643999999999999 193.40200000000002 6.643999999999999Q193.138 6.643999999999999 192.83 6.654999999999999Q192.52200000000002 6.6659999999999995 192.28 6.688V1.7819999999999998Q192.28 1.144 192.39 0.814Q192.5 0.484 192.863 0.374Q193.226 0.264 193.93 0.264Q193.996 0.264 193.996 0.132Q193.996 0.0 193.93 0.0Q193.38000000000002 0.0 192.69800000000004 0.022Q192.01600000000002 0.044 191.202 0.044Q190.43200000000002 0.044 189.728 0.022Q189.024 0.0 188.47400000000002 0.0Q188.40800000000002 0.0 188.40800000000002 0.132Q188.40800000000002 0.264 188.47400000000002 0.264Q189.20000000000002 0.264 189.55200000000002 0.374Q189.90400000000002 0.484 190.036 0.814Q190.168 1.144 190.168 1.7819999999999998V11.968Q190.168 12.606 190.04700000000003 12.925Q189.92600000000002 13.244 189.574 13.364999999999998Q189.222 13.485999999999999 188.496 13.485999999999999Q188.452 13.485999999999999 188.452 13.617999999999999Q188.452 13.75 188.496 13.75Q189.04600000000002 13.75 189.73900000000003 13.716999999999999Q190.43200000000002 13.684 191.202 13.684Q191.906 13.684 192.786 13.75Q193.666 13.815999999999999 194.39200000000002 13.815999999999999ZM196.21800000000002 10.208Q196.21800000000002 11.484 195.92100000000002 12.177Q195.62400000000002 12.87 195.096 13.134Q194.568 13.398 193.864 13.398Q193.006 13.398 192.643 13.079Q192.28 12.76 192.28 11.924V7.281999999999999Q192.58800000000002 7.2379999999999995 192.94 7.215999999999999Q193.292 7.194 193.556 7.194Q195.03 7.194 195.62400000000002 7.930999999999999Q196.21800000000002 8.668 196.21800000000002 10.208Z M216.326 -0.264Q214.742 -0.264 213.45499999999998 0.297Q212.168 0.858 211.255 1.8479999999999999Q210.342 2.8379999999999996 209.847 4.125Q209.352 5.412 209.352 6.864Q209.352 8.645999999999999 210.04500000000002 9.988Q210.738 11.33 211.882 12.221Q213.026 13.112 214.39 13.552Q215.754 13.991999999999999 217.096 13.991999999999999Q218.724 13.991999999999999 220.011 13.408999999999999Q221.298 12.825999999999999 222.2 11.835999999999999Q223.102 10.846 223.575 9.591999999999999Q224.048 8.338 224.048 7.018Q224.048 5.478 223.43200000000002 4.1579999999999995Q222.816 2.8379999999999996 221.749 1.8479999999999999Q220.682 0.858 219.285 0.297Q217.888 -0.264 216.326 -0.264ZM217.074 0.264Q218.394 0.264 219.43900000000002 0.968Q220.484 1.672 221.089 3.0469999999999997Q221.694 4.422 221.694 6.38Q221.694 8.426 221.034 10.01Q220.374 11.594 219.142 12.507Q217.91 13.42 216.194 13.42Q214.06 13.42 212.88299999999998 11.891Q211.706 10.362 211.706 7.656Q211.706 6.072 212.10199999999998 4.718999999999999Q212.498 3.3659999999999997 213.213 2.3539999999999996Q213.928 1.3419999999999999 214.90699999999998 0.8029999999999999Q215.886 0.264 217.074 0.264Z M235.334 11.395999999999999Q235.334 10.538 235.774 9.911Q236.214 9.283999999999999 236.90699999999998 8.777999999999999Q237.6 8.272 238.37 7.787999999999999Q239.206 7.281999999999999 239.96499999999997 6.709999999999999Q240.724 6.138 241.219 5.401Q241.714 4.664 241.714 3.6079999999999997Q241.714 2.464 241.12 1.595Q240.526 0.726 239.481 0.23099999999999998Q238.436 -0.264 237.028 -0.264Q236.434 -0.264 235.785 -0.154Q235.136 -0.044 234.575 0.154Q234.014 0.352 233.662 0.572Q233.574 0.638 233.519 0.726Q233.464 0.814 233.442 0.99L233.31 4.311999999999999Q233.288 4.422 233.409 4.433Q233.53 4.444 233.552 4.356Q233.816 3.6959999999999997 234.179 2.9589999999999996Q234.542 2.222 235.026 1.6059999999999999Q235.51 0.99 236.137 0.605Q236.764 0.21999999999999997 237.578 0.21999999999999997Q238.15 0.21999999999999997 238.656 0.418Q239.162 0.616 239.49200000000002 1.111Q239.822 1.6059999999999999 239.822 2.464Q239.822 3.4979999999999998 239.349 4.234999999999999Q238.876 4.9719999999999995 238.15 5.522Q237.424 6.072 236.632 6.556Q235.862 7.061999999999999 235.15800000000002 7.59Q234.454 8.118 234.003 8.811Q233.552 9.504 233.552 10.494Q233.552 11.703999999999999 234.212 12.474Q234.87199999999999 13.244 235.89499999999998 13.617999999999999Q236.918 13.991999999999999 237.996 13.991999999999999Q238.722 13.991999999999999 239.47 13.86Q240.218 13.728 240.746 13.485999999999999Q240.944 13.42 241.01 13.309999999999999Q241.076 13.2 241.076 13.068L241.12 10.097999999999999Q241.12 10.01 241.02100000000002 9.988Q240.922 9.966 240.878 10.032Q240.768 10.362 240.548 10.945Q240.328 11.527999999999999 239.93200000000002 12.122Q239.536 12.716 238.942 13.134Q238.348 13.552 237.49 13.552Q236.83 13.552 236.346 13.288Q235.862 13.024 235.598 12.550999999999998Q235.334 12.078 235.334 11.395999999999999Z" fill="url(#logo-gold-sub)"/>
  </g>
</svg>